<svg width="125" height="77" viewBox="0 0 125 77" fill="none" xmlns="http://www.w3.org/2000/svg">
<rect width="125" height="76.7045" rx="3" fill="white"/>
<g clip-path="url(#clip0)">
<path fill-rule="evenodd" clip-rule="evenodd" d="M95.4192 47.3651C95.905 47.8689 96.1657 48.5053 96.1657 49.5827C96.1657 51.8347 94.7624 52.8859 92.2457 52.8859H87.386V50.6415H92.2264C92.6997 50.6415 93.035 50.5786 93.2454 50.382C93.417 50.2204 93.5404 49.9849 93.5404 49.6992C93.5404 49.3943 93.4072 49.1521 93.2359 49.0069C93.0448 48.8472 92.7816 48.7746 92.3474 48.7746C90.0136 48.695 87.0913 48.8472 87.0913 45.5346C87.0913 44.0162 88.0431 42.418 90.6587 42.418H95.6613V44.6463H91.0841C90.6301 44.6463 90.3354 44.663 90.0841 44.835C89.8111 45.0046 89.7097 45.2562 89.7097 45.5882C89.7097 45.9835 89.9418 46.2518 90.2557 46.3683C90.5189 46.4601 90.8014 46.4866 91.2268 46.4866L92.57 46.5229C93.9242 46.5561 94.854 46.7912 95.4192 47.3651Z" fill="#2E77BC"/>
<path fill-rule="evenodd" clip-rule="evenodd" d="M104.86 47.3651C105.346 47.8689 105.607 48.5053 105.607 49.5827C105.607 51.8347 104.203 52.8859 101.687 52.8859H96.8269V50.6415H101.667C102.141 50.6415 102.476 50.5786 102.686 50.382C102.858 50.2204 102.981 49.9849 102.981 49.6992C102.981 49.3943 102.848 49.1521 102.677 49.0069C102.486 48.8472 102.222 48.7746 101.788 48.7746C99.4545 48.695 96.5322 48.8472 96.5322 45.5346C96.5322 44.0162 97.4841 42.418 100.1 42.418H105.102V44.6463H100.525C100.071 44.6463 99.7763 44.663 99.525 44.835C99.252 45.0046 99.1506 45.2562 99.1506 45.5882C99.1506 45.9835 99.3827 46.2518 99.6966 46.3683C99.9599 46.4601 100.242 46.4866 100.668 46.4866L102.011 46.5229C103.365 46.5561 104.295 46.7912 104.86 47.3651Z" fill="#2E77BC"/>
<path fill-rule="evenodd" clip-rule="evenodd" d="M77.5635 42.418H85.8914V44.5831H80.0481V46.4863H85.7484V48.6218H80.0481V50.7046L85.8914 50.7141V52.8862H77.5635V42.418Z" fill="#2E77BC"/>
<path fill-rule="evenodd" clip-rule="evenodd" d="M74.411 48.0214C74.9661 48.2272 75.4204 48.5953 75.633 48.9002C75.9856 49.4113 76.0366 49.8883 76.0464 50.8113V52.8862H73.5416V51.5765C73.5416 50.947 73.6018 50.0142 73.1383 49.5278C72.7737 49.1525 72.2179 49.0628 71.3073 49.0628H68.6411V52.8862H66.1338V42.418H71.8946C73.1575 42.418 74.0775 42.4738 74.8968 42.9123C75.6843 43.389 76.1796 44.0424 76.1796 45.2366C76.1793 46.9074 75.0678 47.76 74.411 48.0214ZM72.904 46.7186C72.57 46.9172 72.1575 46.9346 71.6716 46.9346H68.6407V44.5835H71.7129C72.1575 44.5835 72.6021 44.5929 72.904 44.7722C73.2274 44.9417 73.4204 45.2663 73.4204 45.7139C73.4204 46.1621 73.2274 46.5226 72.904 46.7186Z" fill="#2E77BC"/>
<path fill-rule="evenodd" clip-rule="evenodd" d="M64.9622 45.8667C64.9622 48.7749 62.7982 49.375 60.6168 49.375H57.5034V52.8862H52.6535L49.5811 49.4211L46.3883 52.8862H36.5044V42.418H46.5401L49.61 45.8493L52.7839 42.418H60.7572C62.7374 42.418 64.9622 42.9675 64.9622 45.8667ZM60.7283 47.249H57.5034V44.5835H60.7572C61.6581 44.5835 62.2831 44.9515 62.2831 45.8667C62.2831 46.7723 61.687 47.249 60.7283 47.249ZM55.0185 51.9341L51.1875 47.6701L55.0185 43.5418V51.9341ZM45.1251 50.7046H38.9903V48.6218H44.468V46.4863H38.9903V44.5831H45.246L47.9753 47.6338L45.1251 50.7046Z" fill="#2E77BC"/>
</g>
<path fill-rule="evenodd" clip-rule="evenodd" d="M98.9772 34.8798H95.4416L90.7117 27.0246V34.8798H85.6304L84.6593 32.5454H79.476L78.5339 34.8798H75.6139C74.4013 34.8798 72.8657 34.6108 71.9961 33.7222C71.1192 32.8336 70.6626 31.6303 70.6626 29.7268C70.6626 28.1746 70.9356 26.7557 72.008 25.6344C72.8144 24.7992 74.0776 24.4141 75.7971 24.4141H78.2131V26.6566H75.8478C74.9375 26.6566 74.4234 26.7923 73.9281 27.2769C73.5024 27.7172 73.2105 28.5503 73.2105 29.6472C73.2105 30.7685 73.4328 31.5772 73.8969 32.105C74.281 32.5192 74.9788 32.6448 75.6356 32.6448H76.7562L80.2732 24.4144H84.0119L88.2365 34.3134V24.4144H92.0354L96.4214 31.7035V24.4144H98.9772V34.8798ZM83.7218 30.3638L82.0143 26.1919L80.3159 30.3638H83.7218Z" fill="#2E77BC"/>
<path fill-rule="evenodd" clip-rule="evenodd" d="M66.8945 24.4141H69.4405V34.8798H66.8945V24.4141Z" fill="#2E77BC"/>
<path fill-rule="evenodd" clip-rule="evenodd" d="M65.4469 27.2327C65.4469 28.9016 64.3364 29.7634 63.6887 30.0222C64.2347 30.2306 64.7013 30.5987 64.9233 30.9036C65.2753 31.4241 65.3361 31.8891 65.3361 32.8238V34.8798H62.8194L62.8099 33.5599C62.8099 32.9302 62.8701 32.0245 62.416 31.521C62.0517 31.153 61.4957 31.0731 60.5977 31.0731H57.9191V34.8798H55.4238V24.4141H61.1632C62.4381 24.4141 63.378 24.4482 64.1843 24.9153C64.9737 25.3832 65.4469 26.0653 65.4469 27.2327ZM62.1843 28.7024C61.8414 28.9111 61.4359 28.918 60.95 28.918H57.9188V26.5934H60.9913C61.4258 26.5934 61.8798 26.6133 62.1745 26.7822C62.4982 26.935 62.6985 27.2592 62.6985 27.7074C62.6985 28.1648 62.5077 28.5332 62.1843 28.7024Z" fill="#2E77BC"/>
<path fill-rule="evenodd" clip-rule="evenodd" d="M53.6946 34.8798H45.3589V24.4141H53.6946V26.5934H47.8545V28.4799H53.5545V30.6252H47.8545V32.7152H53.6946V34.8798Z" fill="#2E77BC"/>
<path fill-rule="evenodd" clip-rule="evenodd" d="M43.4998 34.8798H40.9418L40.9323 26.6831L37.3139 34.8798H35.1231L31.4958 26.6758V34.8798H26.4208L25.4621 32.5454H20.2668L19.2983 34.8798H16.5879L21.0565 24.4141H24.7634L29.0074 34.3229V24.4141H33.0796L36.3451 31.5138L39.3451 24.4141H43.4994V34.8798H43.4998ZM24.5609 30.3638L22.8534 26.1919L21.155 30.3638H24.5609Z" fill="#2E77BC"/>
<defs>
<clipPath id="clip0">
<rect width="69.8601" height="10.7174" fill="white" transform="translate(36.1396 42.2812)"/>
</clipPath>
</defs>
</svg>
