<svg width="125" height="78" viewBox="0 0 125 78" fill="none" xmlns="http://www.w3.org/2000/svg">
<mask id="mask0" mask-type="alpha" maskUnits="userSpaceOnUse" x="0" y="0" width="125" height="78">
<rect width="125" height="77.59" rx="3" fill="white"/>
</mask>
<g mask="url(#mask0)">
<rect y="-1.00781" width="125" height="78.8252" rx="3" fill="white"/>
<path fill-rule="evenodd" clip-rule="evenodd" d="M126 48.3672C126 54.7431 126 66.7999 126 73.6018C126 76.3632 123.772 78.5971 121.01 78.5971C104.263 78.5971 50.3115 78.5971 36 78.5971C74.2677 71.3682 101.906 61.5106 126 48.3672Z" fill="#F58220"/>
<g clip-path="url(#clip0)">
<g clip-path="url(#clip1)">
<path fill-rule="evenodd" clip-rule="evenodd" d="M107.629 31.9883C107.629 31.7347 107.467 31.5938 107.166 31.5938H106.771V32.875H107.062V32.3766L107.405 32.875H107.771L107.36 32.3457C107.533 32.2974 107.629 32.1663 107.629 31.9883ZM107.116 32.1614H107.062V31.8312H107.12C107.264 31.8312 107.337 31.8844 107.337 31.9932C107.337 32.1045 107.26 32.1614 107.116 32.1614Z" fill="#231F20"/>
<path fill-rule="evenodd" clip-rule="evenodd" d="M107.225 31.1133C106.629 31.1133 106.154 31.6104 106.154 32.2313C106.154 32.8496 106.632 33.348 107.225 33.348C107.808 33.348 108.284 32.8447 108.284 32.2313C108.284 31.6179 107.808 31.1133 107.225 31.1133ZM107.223 33.1464C106.748 33.1464 106.365 32.7408 106.365 32.2337C106.365 31.7217 106.746 31.3161 107.223 31.3161C107.688 31.3161 108.068 31.7292 108.068 32.2337C108.068 32.7358 107.688 33.1464 107.223 33.1464Z" fill="#231F20"/>
</g>
<path fill-rule="evenodd" clip-rule="evenodd" d="M105.711 35.1914C105.711 32.4707 103.915 30.9062 100.777 30.9062H96.7407V45.4226H99.4612V39.5891H99.8176L103.579 45.4226H106.925L102.531 39.3071C104.584 38.8718 105.711 37.4138 105.711 35.1914ZM100.252 37.5869H99.4612V33.1892H100.298C101.993 33.1892 102.915 33.9324 102.915 35.3435C102.915 36.8016 101.993 37.5869 100.252 37.5869Z" fill="#231F20"/>
<path fill-rule="evenodd" clip-rule="evenodd" d="M87.231 45.4226H94.9456V42.9641H89.949V39.0437H94.7556V36.5876H89.949V33.3648H94.9456V30.9062H87.231V45.4226" fill="#231F20"/>
<path fill-rule="evenodd" clip-rule="evenodd" d="M79.2822 40.6576L75.5591 30.9062H72.5903L78.51 45.7949H79.9724L85.9954 30.9062H83.048L79.2822 40.6576" fill="#231F20"/>
<g filter="url(#filter0_i)">
<path fill-rule="evenodd" clip-rule="evenodd" d="M58.2778 38.0952C58.2778 42.4769 61.4628 45.7504 65.7121 45.7504C69.857 45.7504 73.1286 42.4336 73.1286 38.1806C73.1286 33.956 69.8783 30.6367 65.7121 30.6367C61.6065 30.6367 58.2778 33.9746 58.2778 38.0952Z" fill="#F48027"/>
</g>
<path fill-rule="evenodd" clip-rule="evenodd" d="M46.4751 38.1741C46.4751 42.4444 49.6969 45.7514 53.8358 45.7514C55.0083 45.7514 56.0109 45.5127 57.2464 44.903V41.5726C56.1559 42.7054 55.1948 43.1592 53.9605 43.1592C51.2222 43.1592 49.2763 41.0915 49.2763 38.1519C49.2763 35.3693 51.2828 33.1692 53.8358 33.1692C55.1306 33.1692 56.1143 33.6503 57.2464 34.8016V31.4712C56.0549 30.8405 55.0689 30.582 53.8999 30.582C49.7788 30.582 46.4751 33.957 46.4751 38.1741" fill="#231F20"/>
<path fill-rule="evenodd" clip-rule="evenodd" d="M41.6058 36.4728C39.9723 35.8446 39.4936 35.4291 39.4936 34.6462C39.4936 33.7335 40.3465 33.0373 41.5214 33.0373C42.3364 33.0373 43.0052 33.386 43.718 34.2097L45.1376 32.2767C43.9663 31.207 42.5668 30.6641 41.0391 30.6641C38.5741 30.6641 36.6912 32.4486 36.6912 34.8206C36.6912 36.8253 37.5691 37.8468 40.1196 38.804C41.1864 39.1948 41.7293 39.4557 42.0014 39.6314C42.5455 40.0036 42.8187 40.523 42.8187 41.1315C42.8187 42.31 41.9182 43.1782 40.7041 43.1782C39.4068 43.1782 38.3626 42.5067 37.7354 41.2428L35.9819 43.0088C37.2341 44.922 38.7392 45.7716 40.811 45.7716C43.6336 45.7716 45.6187 43.8102 45.6187 41.0041C45.6187 38.6977 44.7016 37.6514 41.6058 36.4728" fill="#231F20"/>
<path fill-rule="evenodd" clip-rule="evenodd" d="M32.2373 30.9062H34.9554V45.4226H32.2373V30.9062Z" fill="#231F20"/>
<path fill-rule="evenodd" clip-rule="evenodd" d="M23.4978 30.9062H19.5015V45.4226H23.4788C25.5874 45.4226 27.114 44.9007 28.4528 43.7494C30.0399 42.3741 30.982 40.3064 30.982 38.1718C30.982 33.8867 27.9063 30.9062 23.4978 30.9062ZM26.678 41.809C25.8179 42.6165 24.7119 42.9641 22.9537 42.9641H22.2219V33.3648H22.9537C24.7119 33.3648 25.7751 33.6913 26.678 34.5384C27.6189 35.4103 28.1784 36.7583 28.1784 38.1496C28.1784 39.5458 27.6189 40.9421 26.678 41.809Z" fill="#231F20"/>
</g>
</g>
<defs>
<filter id="filter0_i" x="58.2778" y="30.6367" width="15.8508" height="16.1137" filterUnits="userSpaceOnUse" color-interpolation-filters="sRGB">
<feFlood flood-opacity="0" result="BackgroundImageFix"/>
<feBlend mode="normal" in="SourceGraphic" in2="BackgroundImageFix" result="shape"/>
<feColorMatrix in="SourceAlpha" type="matrix" values="0 0 0 0 0 0 0 0 0 0 0 0 0 0 0 0 0 0 127 0" result="hardAlpha"/>
<feOffset dx="1" dy="1"/>
<feGaussianBlur stdDeviation="1"/>
<feComposite in2="hardAlpha" operator="arithmetic" k2="-1" k3="1"/>
<feColorMatrix type="matrix" values="0 0 0 0 0 0 0 0 0 0 0 0 0 0 0 0 0 0 0.5 0"/>
<feBlend mode="normal" in2="shape" result="effect1_innerShadow"/>
</filter>
<clipPath id="clip0">
<rect width="90" height="16.1226" fill="white" transform="translate(19 30.2305)"/>
</clipPath>
<clipPath id="clip1">
<rect width="2.96703" height="3" fill="white" transform="translate(105.722 30.8984)"/>
</clipPath>
</defs>
</svg>
