<svg width="125" height="78" viewBox="0 0 125 78" fill="none" xmlns="http://www.w3.org/2000/svg">
<rect width="125" height="77.5862" rx="3" fill="white"/>
<g clip-path="url(#clip0)">
<path fill-rule="evenodd" clip-rule="evenodd" d="M72.4987 38.3904C72.4987 53.2506 60.5287 65.2956 45.7624 65.2956C30.9948 65.2956 19.0239 53.2506 19.0239 38.3904C19.0239 23.5306 30.9948 11.4844 45.7624 11.4844C60.5287 11.4844 72.4987 23.5306 72.4987 38.3904Z" fill="#D82332"/>
<path fill-rule="evenodd" clip-rule="evenodd" d="M80.9219 11.4844C74.0121 11.4844 67.7176 14.1219 62.9717 18.4487C62.0066 19.3305 61.1049 20.283 60.2738 21.2971H65.6751C66.4128 22.201 67.0931 23.1514 67.7134 24.1467H58.2342C57.6676 25.0613 57.1517 26.0117 56.6941 26.9964H69.2535C69.6828 27.9187 70.0606 28.8685 70.3859 29.8448H55.5617C55.2528 30.773 54.993 31.7233 54.7847 32.6928H71.1617C71.5534 34.5296 71.7621 36.4354 71.7621 38.3904C71.7621 41.3774 71.2788 44.2526 70.3859 46.9377H55.5617C55.8866 47.9135 56.2648 48.8643 56.6933 49.7878H69.2535C68.7947 50.77 68.2813 51.7212 67.7113 52.6371H58.2342C58.8528 53.6295 59.5344 54.5811 60.2738 55.4837H65.6734C64.8435 56.4987 63.9414 57.4511 62.973 58.333C67.7185 62.6598 74.0121 65.2956 80.9219 65.2956C95.6882 65.2956 107.659 53.2506 107.659 38.3904C107.659 23.5319 95.6882 11.4844 80.9219 11.4844Z" fill="#F1AB3E"/>
<path fill-rule="evenodd" clip-rule="evenodd" d="M103.799 44.6703C103.799 44.1886 104.187 43.8008 104.661 43.8008C105.139 43.8008 105.524 44.1886 105.524 44.6703C105.524 45.1487 105.139 45.539 104.661 45.539C104.187 45.539 103.799 45.1487 103.799 44.6703ZM104.661 45.3306C105.025 45.3306 105.319 45.0343 105.319 44.6703C105.319 44.3059 105.025 44.0096 104.661 44.0096C104.299 44.0096 104.006 44.3059 104.006 44.6703C104.006 45.0343 104.299 45.3306 104.661 45.3306ZM104.545 45.05H104.368V44.2876H104.689C104.756 44.2876 104.824 44.2902 104.883 44.3267C104.945 44.368 104.979 44.4411 104.979 44.5168C104.979 44.6031 104.93 44.6839 104.849 44.7145L104.988 45.05H104.792L104.675 44.7485H104.545V45.05ZM104.545 44.618H104.643C104.679 44.618 104.72 44.6214 104.751 44.6031C104.78 44.5848 104.795 44.5483 104.795 44.5151C104.795 44.4862 104.778 44.4539 104.753 44.436C104.722 44.419 104.673 44.4237 104.64 44.4237H104.545V44.618Z" fill="#FFFFFE"/>
<path fill-rule="evenodd" clip-rule="evenodd" d="M101.064 32.3203L100.418 36.2632C99.6262 35.2125 98.7735 34.4514 97.6479 34.4514C96.1829 34.4514 94.8502 35.5688 93.9773 37.2143C92.7612 36.9605 91.5055 36.5289 91.5055 36.5289L91.5046 36.5395C91.601 35.6198 91.6424 35.0603 91.6326 34.8689H88.966C88.6039 38.305 87.9574 41.7839 87.4533 45.2212L87.3198 45.9679H90.2248C90.6164 43.4065 90.916 41.2771 91.1374 39.5908C92.13 38.6881 92.6269 37.9023 93.6279 37.9533C93.1842 39.0342 92.9248 40.2783 92.9248 41.5547C92.9248 44.3283 94.3187 46.1596 96.4297 46.1596C97.4936 46.1596 98.3095 45.7901 99.106 44.9346L98.9691 45.967H101.716L103.926 32.3203H101.064ZM97.4332 43.4039C96.4453 43.4039 95.9455 42.6666 95.9455 41.2159C95.9455 39.0342 96.8805 37.4877 98.1967 37.4877C99.1943 37.4877 99.7348 38.2514 99.7348 39.6613C99.7348 41.8617 98.784 43.4039 97.4332 43.4039Z" fill="#0C2D5A"/>
<path fill-rule="evenodd" clip-rule="evenodd" d="M84.3771 41.2741C84.0741 41.2384 83.9397 41.2286 83.731 41.2286C82.0861 41.2286 81.2533 41.7958 81.2533 42.9171C81.2533 43.6072 81.6597 44.049 82.2935 44.049C83.4749 44.049 84.3285 42.9162 84.3771 41.2741ZM86.4897 46.2179C86.1035 46.2179 84.0851 46.2179 84.0851 46.2179L84.1396 45.0686C83.4057 45.9764 82.4271 46.4105 81.0982 46.4105C79.5238 46.4105 78.4468 45.1732 78.4468 43.378C78.4468 40.6746 80.3211 39.1005 83.5421 39.1005C83.8713 39.1005 84.2921 39.1307 84.7235 39.1868C84.8135 38.8195 84.8376 38.6634 84.8376 38.4644C84.8376 37.7305 84.3335 37.4571 82.9768 37.4571C81.5571 37.4401 80.3871 37.796 79.9041 37.9546C79.9349 37.7709 80.3068 35.4591 80.3068 35.4591C81.7535 35.0322 82.7068 34.8711 83.7804 34.8711C86.273 34.8711 87.5938 35.9983 87.5909 38.126C87.5964 38.6962 87.5026 39.4016 87.3564 40.3251C87.1045 41.9311 86.5641 45.3803 86.4897 46.2179Z" fill="#0C2D5A"/>
<path fill-rule="evenodd" clip-rule="evenodd" d="M76.72 35.2748C77.5262 35.2748 78.2787 35.4857 79.3139 36.0113L79.7893 33.0498C79.3625 32.8814 77.8663 31.8945 76.5987 31.8945C74.6567 31.8945 73.0126 32.8657 71.8591 34.4648C70.1741 33.9036 69.4807 35.038 68.6322 36.169L67.878 36.3459C67.935 35.9739 67.987 35.6039 67.9705 35.2298H65.3031C64.9401 38.6658 64.2949 42.1448 63.7895 45.582L63.6577 46.3287H66.5618C67.046 43.1593 67.311 41.1307 67.4728 39.7564L68.5663 39.1467C68.7307 38.534 69.2407 38.3282 70.2662 38.3533C70.1326 39.077 70.06 39.8393 70.06 40.6281C70.06 44.2597 72.0091 46.5205 75.1329 46.5205C75.9374 46.5205 76.6291 46.4142 77.6994 46.1208L78.2077 43.0109C77.2456 43.4867 76.4576 43.7108 75.7426 43.7108C74.055 43.7108 73.0342 42.4568 73.0342 40.3857C73.0342 37.38 74.5519 35.2748 76.72 35.2748Z" fill="#0C2D5A"/>
<path fill-rule="evenodd" clip-rule="evenodd" d="M62.6595 45.9615C61.6682 46.2668 60.7103 46.4114 59.6983 46.4105C56.4676 46.4084 54.7847 44.7097 54.7847 41.4595C54.7847 37.6646 56.9261 34.8711 59.8327 34.8711C62.2137 34.8711 63.7323 36.435 63.7323 38.8896C63.7323 39.703 63.6266 40.4969 63.3773 41.6181H57.6313C57.4361 43.2283 58.4607 43.9001 60.1386 43.9001C61.1709 43.9001 62.103 43.685 63.1399 43.2003L62.6595 45.9615ZM61.0378 39.3799C61.0534 39.1477 61.3433 37.3989 59.6945 37.3989C58.7759 37.3989 58.1189 38.1051 57.851 39.3799H61.0378Z" fill="#0C2D5A"/>
<path fill-rule="evenodd" clip-rule="evenodd" d="M53.6719 46.203C52.8779 46.4547 52.2585 46.564 51.5871 46.564C50.1032 46.564 49.2927 45.7055 49.2927 44.1267C49.2725 43.6343 49.507 42.3464 49.6912 41.1678C49.8585 40.1299 50.9499 33.5938 50.9499 33.5938H53.835L53.4978 35.2733H54.9788L54.5846 37.9401H53.0985C52.7634 40.0525 52.2851 42.6802 52.2796 43.0289C52.2796 43.6029 52.5839 43.8512 53.2743 43.8512C53.6047 43.8512 53.8608 43.8185 54.0568 43.7466L53.6719 46.203Z" fill="#0C2D5A"/>
<path fill-rule="evenodd" clip-rule="evenodd" d="M42.3623 38.6281C42.3623 40.0334 43.0392 40.9995 44.5734 41.7278C45.7485 42.284 45.9302 42.4485 45.9302 42.9528C45.9302 43.6446 45.4121 43.9567 44.2632 43.9567C43.3971 43.9567 42.5917 43.8215 41.6621 43.52C41.6621 43.52 41.2818 45.9653 41.2637 46.081C41.9232 46.2264 42.5118 46.3591 44.284 46.4105C47.3473 46.4105 48.762 45.2374 48.762 42.7011C48.762 41.1755 48.1696 40.2809 46.7156 39.6091C45.4987 39.0457 45.3589 38.9211 45.3589 38.4024C45.3589 37.8024 45.841 37.4937 46.7794 37.4937C47.3486 37.4937 48.1273 37.5575 48.8651 37.6621L49.2783 35.0884C48.5266 34.9689 47.3875 34.8711 46.7232 34.8711C43.4761 34.8711 42.3525 36.5778 42.3623 38.6281Z" fill="#0C2D5A"/>
<path fill-rule="evenodd" clip-rule="evenodd" d="M38.7454 41.2741C38.4412 41.2384 38.3068 41.2286 38.0976 41.2286C36.4523 41.2286 35.6195 41.7958 35.6195 42.9171C35.6195 43.6072 36.0259 44.049 36.6602 44.049C37.8428 44.049 38.6951 42.9162 38.7454 41.2741ZM40.8564 46.2179C40.4697 46.2179 38.4517 46.2179 38.4517 46.2179L38.5067 45.0686C37.7731 45.9764 36.7941 46.4105 35.4644 46.4105C33.8913 46.4105 32.813 45.1732 32.813 43.378C32.813 40.6746 34.6886 39.1005 37.9088 39.1005C38.2383 39.1005 38.66 39.1307 39.0919 39.1868C39.1819 38.8195 39.2055 38.6634 39.2055 38.4644C39.2055 37.7305 38.6997 37.4571 37.3443 37.4571C35.9233 37.4401 34.7528 37.796 34.2712 37.9546C34.3016 37.7709 34.6738 35.4591 34.6738 35.4591C36.1202 35.0322 37.0743 34.8711 38.1479 34.8711C40.6405 34.8711 41.9605 35.9983 41.9579 38.126C41.963 38.6962 41.8692 39.4016 41.7234 40.3251C41.4712 41.9311 40.9303 45.3803 40.8564 46.2179Z" fill="#0C2D5A"/>
<path fill-rule="evenodd" clip-rule="evenodd" d="M31.3539 46.3924H28.4515L30.1146 35.9019L26.4018 46.3924H24.4235L24.1789 35.9627L22.4313 46.3924H19.7144L21.9838 32.7461H26.158L26.2742 41.1939L29.0908 32.7461H33.5989L31.3539 46.3924Z" fill="#0C2D5A"/>
<path fill-rule="evenodd" clip-rule="evenodd" d="M102.871 45.5408H100.126L100.262 44.508C99.4654 45.3639 98.649 45.7334 97.5855 45.7334C95.4758 45.7334 94.0806 43.9042 94.0806 41.1277C94.0806 37.4361 96.2444 34.3245 98.8032 34.3245C99.9293 34.3245 100.782 34.7871 101.575 35.8382L102.219 31.8945H105.082L102.871 45.5408ZM98.589 42.9764C99.9416 42.9764 100.891 41.4351 100.891 39.2368C100.891 37.8265 100.35 37.0607 99.3521 37.0607C98.0359 37.0607 97.1008 38.6071 97.1008 40.7896C97.1008 42.2425 97.602 42.9764 98.589 42.9764Z" fill="#FFFFFE"/>
<path fill-rule="evenodd" clip-rule="evenodd" d="M89.8108 34.1387C89.4474 37.5738 88.8022 41.0532 88.2973 44.4901L88.165 45.2367H91.0683C92.1064 38.4498 92.3566 37.1253 93.9859 37.2907C94.2449 35.9015 94.7274 34.6851 95.0874 34.0719C93.8718 33.8168 93.1928 34.5082 92.3029 35.822C92.3739 35.2535 92.5019 34.7021 92.4779 34.1387H89.8108Z" fill="#FFFFFE"/>
<path fill-rule="evenodd" clip-rule="evenodd" d="M85.2218 40.4226C84.9188 40.3869 84.7845 40.3771 84.5757 40.3771C82.9308 40.3771 82.098 40.9443 82.098 42.0655C82.098 42.7556 82.5045 43.1974 83.1383 43.1974C84.3197 43.1974 85.1732 42.0647 85.2218 40.4226ZM87.3345 45.3663C86.9483 45.3663 84.9298 45.3663 84.9298 45.3663L84.9843 44.217C84.2504 45.1248 83.2718 45.5589 81.9429 45.5589C80.3685 45.5589 79.2915 44.3216 79.2915 42.5264C79.2915 39.823 81.1659 38.249 84.3869 38.249C84.716 38.249 85.1369 38.2792 85.5683 38.3353C85.6583 37.9679 85.6823 37.8119 85.6823 37.6129C85.6823 36.879 85.1783 36.6056 83.8215 36.6056C82.4018 36.5886 81.2318 36.9445 80.7488 37.1031C80.7797 36.9194 81.1515 34.6076 81.1515 34.6076C82.5983 34.1807 83.5515 34.0195 84.6252 34.0195C87.1177 34.0195 88.4385 35.1467 88.4356 37.2744C88.4411 37.8446 88.3473 38.55 88.2011 39.4735C87.9493 41.0795 87.4088 44.5287 87.3345 45.3663Z" fill="#FFFFFE"/>
<path fill-rule="evenodd" clip-rule="evenodd" d="M80.5688 32.1776L80.0935 35.139C79.057 34.6148 78.3062 34.4026 77.5004 34.4026C75.3332 34.4026 73.8134 36.5103 73.8134 39.5165C73.8134 41.5876 74.835 42.8389 76.5227 42.8389C77.2372 42.8389 78.0269 42.6166 78.9877 42.1391L78.4777 45.249C77.4091 45.5423 76.7174 45.6491 75.9129 45.6491C72.7874 45.6491 70.8408 43.3879 70.8408 39.7571C70.8408 34.8784 73.5319 31.4688 77.3783 31.4688C78.6459 31.4688 80.1429 32.0092 80.5688 32.1776Z" fill="#FFFFFE"/>
<path fill-rule="evenodd" clip-rule="evenodd" d="M66.1504 34.1387C65.7853 37.5738 65.1393 41.0532 64.6352 44.4901L64.5029 45.2367H67.407C68.446 38.4498 68.6953 37.1253 70.3221 37.2907C70.5828 35.9015 71.0666 34.6851 71.4253 34.0719C70.2105 33.8168 69.5307 34.5082 68.6425 35.822C68.7126 35.2535 68.8415 34.7021 68.8157 34.1387H66.1504Z" fill="#FFFFFE"/>
<path fill-rule="evenodd" clip-rule="evenodd" d="M63.5047 45.1099C62.5134 45.4152 61.5555 45.5598 60.5435 45.5589C57.3128 45.5568 55.6299 43.8582 55.6299 40.608C55.6299 36.8131 57.7713 34.0195 60.6779 34.0195C63.0589 34.0195 64.5775 35.5834 64.5775 38.0381C64.5775 38.8515 64.4719 39.6453 64.2226 40.7666H58.4765C58.2813 42.3768 59.3059 43.0486 60.9838 43.0486C62.0161 43.0486 62.9482 42.8334 63.9851 42.3487L63.5047 45.1099ZM61.883 38.5283C61.8986 38.2962 62.1885 36.5473 60.5397 36.5473C59.6212 36.5473 58.9641 37.2536 58.6962 38.5283H61.883Z" fill="#FFFFFE"/>
<path fill-rule="evenodd" clip-rule="evenodd" d="M54.5171 45.3553C53.7232 45.607 53.1037 45.7163 52.4323 45.7163C50.9484 45.7163 50.1379 44.8578 50.1379 43.2791C50.1177 42.7867 50.3522 41.4988 50.5364 40.3201C50.7037 39.2822 51.7951 32.7461 51.7951 32.7461H54.6802L54.343 34.4256H55.824L55.4298 37.0925H53.9437C53.6087 39.2048 53.1303 41.8326 53.1249 42.1812C53.1249 42.7552 53.4291 43.0035 54.1195 43.0035C54.4499 43.0035 54.706 42.9708 54.902 42.8989L54.5171 45.3553Z" fill="#FFFFFE"/>
<path fill-rule="evenodd" clip-rule="evenodd" d="M43.207 37.7766C43.207 39.1818 43.8839 40.1479 45.4181 40.8763C46.5932 41.4324 46.7749 41.597 46.7749 42.1012C46.7749 42.793 46.2568 43.1051 45.108 43.1051C44.2418 43.1051 43.4364 42.9699 42.5068 42.6685C42.5068 42.6685 42.1266 45.1138 42.1084 45.2294C42.768 45.3748 43.3566 45.5075 45.1287 45.5589C48.1921 45.5589 49.6067 44.3858 49.6067 41.8495C49.6067 40.3239 49.0143 39.4293 47.5604 38.7575C46.3435 38.1941 46.2036 38.0695 46.2036 37.5508C46.2036 36.9508 46.6857 36.6421 47.6242 36.6421C48.1933 36.6421 48.9721 36.7059 49.7098 36.8105L50.123 34.2368C49.3714 34.1173 48.2322 34.0195 47.568 34.0195C44.3208 34.0195 43.1973 35.7263 43.207 37.7766Z" fill="#FFFFFE"/>
<path fill-rule="evenodd" clip-rule="evenodd" d="M39.5901 40.4226C39.2859 40.3869 39.1515 40.3771 38.9424 40.3771C37.297 40.3771 36.4642 40.9443 36.4642 42.0655C36.4642 42.7556 36.8707 43.1974 37.5049 43.1974C38.6876 43.1974 39.5398 42.0647 39.5901 40.4226ZM41.7011 45.3663C41.3145 45.3663 39.2964 45.3663 39.2964 45.3663L39.3514 44.217C38.6179 45.1248 37.6388 45.5589 36.3091 45.5589C34.736 45.5589 33.6577 44.3216 33.6577 42.5264C33.6577 39.823 35.5333 38.249 38.7535 38.249C39.0831 38.249 39.5048 38.2792 39.9366 38.3353C40.0266 37.9679 40.0503 37.8119 40.0503 37.6129C40.0503 36.879 39.5445 36.6056 38.189 36.6056C36.768 36.5886 35.5976 36.9445 35.1159 37.1031C35.1463 36.9194 35.5186 34.6076 35.5186 34.6076C36.9649 34.1807 37.919 34.0195 38.9926 34.0195C41.4852 34.0195 42.8052 35.1467 42.8026 37.2744C42.8077 37.8446 42.7139 38.55 42.5681 39.4735C42.3159 41.0795 41.775 44.5287 41.7011 45.3663Z" fill="#FFFFFE"/>
<path fill-rule="evenodd" clip-rule="evenodd" d="M32.1991 45.5408H29.2968L30.9599 35.0503L27.247 45.5408H25.2687L25.0241 35.1111L23.2765 45.5408H20.5596L22.829 31.8945H27.0032L27.1194 40.3423L29.936 31.8945H34.4441L32.1991 45.5408Z" fill="#FFFFFE"/>
</g>
<defs>
<clipPath id="clip0">
<rect width="90" height="54" fill="white" transform="translate(17.9316 11.4844)"/>
</clipPath>
</defs>
</svg>
