<svg width="125" height="78" viewBox="0 0 125 78" fill="none" xmlns="http://www.w3.org/2000/svg">
<rect width="125" height="77.5862" rx="3" fill="white"/>
<g clip-path="url(#clip0)">
<g clip-path="url(#clip1)">
<path fill-rule="evenodd" clip-rule="evenodd" d="M101.043 49.9233C101.043 49.1501 101.671 48.5234 102.444 48.5234C103.218 48.5234 103.844 49.1501 103.844 49.9233C103.844 50.6959 103.218 51.3233 102.444 51.3233C101.671 51.3233 101.043 50.6959 101.043 49.9233ZM102.444 50.9863C103.033 50.9863 103.509 50.5103 103.509 49.9233C103.509 49.3343 103.033 48.8597 102.444 48.8597C101.857 48.8597 101.381 49.3343 101.381 49.9233C101.381 50.5103 101.857 50.9863 102.444 50.9863ZM102.255 50.537H101.969V49.3076H102.488C102.597 49.3076 102.706 49.309 102.802 49.3693C102.902 49.4391 102.958 49.5549 102.958 49.6768C102.958 49.8172 102.878 49.9473 102.746 49.9953L102.971 50.537H102.652L102.466 50.05H102.255V50.537ZM102.255 49.8398H102.413C102.472 49.8398 102.536 49.8453 102.588 49.8172C102.636 49.7864 102.66 49.7288 102.66 49.674C102.66 49.6288 102.631 49.5741 102.591 49.5501C102.54 49.5206 102.461 49.5268 102.407 49.5268H102.255V49.8398Z" fill="#0161AB"/>
</g>
<path fill-rule="evenodd" clip-rule="evenodd" d="M94.1312 51.4123H100.346L94.9277 25.582H89.4869C86.9736 25.582 86.3605 27.5061 86.3605 27.5061L76.2666 51.4123H83.3214L84.7321 47.5763H93.338L94.1312 51.4123ZM86.6831 42.2761L90.2392 32.6076L92.241 42.2761H86.6831Z" fill="#0066B2"/>
<path fill-rule="evenodd" clip-rule="evenodd" d="M76.7948 31.7943L77.7615 26.2472C77.7615 26.2472 74.7798 25.1211 71.6733 25.1211C68.3138 25.1211 60.3366 26.5798 60.3366 33.6723C60.3366 40.3466 69.7002 40.4301 69.7002 43.9324C69.7002 47.437 61.3021 46.8114 58.5292 44.6008L57.5239 50.3993C57.5239 50.3993 60.5454 51.8591 65.1653 51.8591C69.7831 51.8591 76.7539 49.4818 76.7539 43.0159C76.7539 36.2999 67.3063 35.6732 67.3063 32.7536C67.3063 29.833 73.8993 30.2084 76.7948 31.7943Z" fill="#0066B2"/>
<path fill-rule="evenodd" clip-rule="evenodd" d="M53.3527 51.4123H46.584L50.814 25.582H57.5849L53.3527 51.4123Z" fill="#0066B2"/>
<path fill-rule="evenodd" clip-rule="evenodd" d="M34.4362 43.3485L40.8889 25.582H48.1746L37.4046 51.4123H30.352L24.4727 28.9713C20.7376 26.7429 17.5352 26.0493 17.395 26.0199C17.5716 26.0569 22.6059 27.1442 27.4377 31.0293C32.1406 34.8115 33.6717 39.5234 33.6717 39.5234V39.5223L34.4362 43.3485Z" fill="#0066B2"/>
<path fill-rule="evenodd" clip-rule="evenodd" d="M33.6716 39.5234L31.3937 27.9078C31.3937 27.9078 31.1197 25.582 28.1833 25.582H17.515L17.3901 26.0189C17.3912 26.0189 22.5194 27.0747 27.4376 31.0293C32.1405 34.8115 33.6716 39.5234 33.6716 39.5234Z" fill="#F9A533"/>
</g>
<defs>
<clipPath id="clip0">
<rect width="87.3863" height="27.3955" fill="white" transform="translate(16.8633 24.9688)"/>
</clipPath>
<clipPath id="clip1">
<rect width="3.42691" height="3.42443" fill="white" transform="translate(100.823 48.3672)"/>
</clipPath>
</defs>
</svg>
